<?xml version="1.0" standalone="no"?>
<!DOCTYPE svg PUBLIC "-//W3C//DTD SVG 20010904//EN"
 "http://www.w3.org/TR/2001/REC-SVG-20010904/DTD/svg10.dtd">
<svg version="1.0" xmlns="http://www.w3.org/2000/svg"
 width="512.000000pt" height="512.000000pt" viewBox="0 0 512.000000 512.000000"
 preserveAspectRatio="xMidYMid meet">

<g transform="translate(0.000000,512.000000) scale(0.100000,-0.100000)"
fill="#000000" stroke="none">
<path d="M2880 5109 c-443 -31 -869 -134 -1165 -281 -180 -90 -332 -224 -393
-347 -34 -69 -37 -82 -37 -161 0 -79 3 -92 37 -161 51 -104 164 -215 294 -289
l51 -30 299 -4 c412 -6 672 -36 1002 -117 173 -42 351 -101 471 -156 l75 -34
148 16 c371 39 683 116 950 235 228 101 397 239 466 379 34 69 37 82 37 161 0
79 -3 92 -37 161 -162 327 -778 573 -1578 629 -166 11 -451 11 -620 -1z"/>
<path d="M5030 3647 c-231 -161 -618 -306 -995 -372 -55 -10 -102 -19 -104
-21 -2 -2 18 -30 45 -63 114 -141 171 -277 181 -433 3 -49 9 -88 14 -88 4 0
61 15 126 34 400 115 681 294 781 495 l37 75 3 180 c2 100 2 197 0 217 l-3 36
-85 -60z"/>
<path d="M1680 3513 c-350 -24 -608 -65 -863 -139 -398 -116 -676 -292 -775
-493 -34 -69 -37 -82 -37 -161 0 -79 3 -92 37 -161 247 -499 1527 -773 2658
-568 326 59 650 175 840 301 112 74 215 181 258 267 34 69 37 82 37 161 0 79
-3 92 -37 161 -162 327 -778 573 -1578 629 -132 9 -430 11 -540 3z"/>
<path d="M5031 2688 c-98 -68 -275 -159 -411 -213 -81 -32 -346 -111 -432
-130 l-28 -5 0 -315 c0 -185 4 -315 9 -315 5 0 63 15 128 34 218 63 423 155
558 251 91 64 192 177 229 254 31 65 31 68 34 246 2 99 2 196 0 216 l-3 36
-84 -59z"/>
<path d="M2 1892 l3 -218 37 -75 c78 -157 262 -298 537 -409 810 -329 2105
-299 2833 66 172 86 334 231 391 350 l32 69 3 218 3 217 -96 -65 c-539 -366
-1495 -525 -2436 -405 -492 63 -921 205 -1212 403 l-98 67 3 -218z"/>
<path d="M2 932 l3 -218 37 -75 c141 -283 624 -508 1283 -598 1088 -149 2241
130 2473 598 l37 75 3 218 4 218 -97 -65 c-540 -366 -1495 -525 -2439 -404
-491 62 -916 204 -1211 404 l-96 65 3 -218z"/>
</g>
</svg>
